<svg width="1000" height="1001" viewBox="0 0 1000 1001" fill="none" xmlns="http://www.w3.org/2000/svg">
<g clip-path="url(#clip0_4954_29615)">
<path fill-rule="evenodd" clip-rule="evenodd" d="M992.071 500.098C988.202 768.825 769.157 985.476 499.51 985.476C229.862 985.476 10.817 768.825 6.94853 500.098C6.91387 502.505 6.89648 504.917 6.89648 507.332C6.89648 779.395 227.447 999.945 499.51 999.945C771.572 999.945 992.123 779.395 992.123 507.332C992.123 504.917 992.105 502.505 992.071 500.098Z" fill="#155b31"/>
<path fill-rule="evenodd" clip-rule="evenodd" d="M499.51 985.476C771.572 985.476 992.123 764.926 992.123 492.863C992.123 220.8 771.572 0.25 499.51 0.25C227.447 0.25 6.89648 220.8 6.89648 492.863C6.89648 764.926 227.447 985.476 499.51 985.476ZM327.966 234C334.046 203.079 339.221 176.944 339.48 176.039C339.998 174.615 365.097 174.357 481.408 174.874C626.182 175.392 637.826 175.78 680.391 181.084C741.458 188.588 771.862 199.974 798.902 225.202C824.001 248.749 835.904 279.67 837.715 325.858C841.208 412.283 803.042 489.133 735.895 530.923C696.693 555.246 653.481 568.83 592.414 575.817C583.099 576.852 546.097 577.369 475.974 577.499L373.118 577.757L351.512 691.481C339.61 753.97 329.518 805.851 329.13 806.886C328.483 808.568 321.238 808.697 273.239 808.05C242.964 807.533 217.994 807.015 217.735 806.886C217.606 806.627 218.253 802.358 219.159 797.441C219.798 794.323 223.354 776.033 228.267 750.757C231.304 735.136 234.859 716.846 238.565 697.82L240.182 689.518C249.311 642.659 257.958 598.27 259.913 588.496C261.031 582.903 264.001 567.826 267.802 548.534C271.034 532.126 274.867 512.669 278.672 493.403C286.953 451.355 294.068 415.776 294.457 414.094L295.103 411.248H261.983C243.74 411.248 228.862 410.989 228.862 410.73C228.862 410.083 241.67 341.254 242.447 337.891C243.093 334.916 243.223 334.915 275.663 334.656L275.697 334.656L308.3 334.268L312.699 312.274C315.028 300.112 321.885 264.921 327.966 234ZM688.672 297.783C673.793 289.891 653.222 286.269 611.821 284.457C585.299 283.293 430.692 282.646 430.692 283.681C430.692 283.976 429.5 290.227 427.852 298.878C427.327 301.629 426.757 304.623 426.163 307.745C423.705 320.683 421.635 331.939 421.635 332.974C421.635 334.527 433.797 334.785 500.168 334.915C543.38 334.915 578.959 335.174 579.218 335.562C579.606 335.82 576.63 352.898 572.749 373.34L565.762 410.601L486.066 410.989C411.544 411.248 406.239 411.377 405.592 413.577C405.204 414.741 402.875 426.773 400.288 440.358L399.8 442.893C397.413 455.308 395.347 466.057 394.983 467.269C394.336 469.468 398.865 469.597 501.462 469.08L502.076 469.078C607.17 468.692 608.741 468.686 621.395 465.716C654.257 458.341 677.804 443.981 697.211 419.657C712.348 400.51 720.499 379.033 720.499 358.332C720.369 329.481 709.631 308.91 688.672 297.783Z" fill="#155b31"/>
</g>
<defs>
<clipPath id="clip0_4954_29615">
<rect width="1000" height="1000" fill="#155b31" transform="translate(0 0.25)"/>
</clipPath>
</defs>
</svg>
